<?xml version="1.0" encoding="UTF-8"?>
<svg width="1000px" height="1000px" viewBox="0 0 1000 1000" version="1.1" xmlns="http://www.w3.org/2000/svg" xmlns:xlink="http://www.w3.org/1999/xlink">
    <!-- Generator: Sketch 54.1 (76490) - https://sketchapp.com -->
    <title>编组 46</title>
    <desc>Created with Sketch.</desc>
    <defs>
        <linearGradient x1="79.0720975%" y1="41.4403789%" x2="29.5739014%" y2="50%" id="linearGradient-1">
            <stop stop-color="#F1F5FB" offset="0%"></stop>
            <stop stop-color="#FFFFFF" offset="100%"></stop>
        </linearGradient>
        <linearGradient x1="46.1801558%" y1="-9.21335019%" x2="60.4192297%" y2="50%" id="linearGradient-2">
            <stop stop-color="#CFDDF3" offset="0%"></stop>
            <stop stop-color="#A1B8E3" offset="100%"></stop>
        </linearGradient>
        <linearGradient x1="50%" y1="0%" x2="50%" y2="100%" id="linearGradient-3">
            <stop stop-color="#CFDDF3" offset="0%"></stop>
            <stop stop-color="#A1B8E3" offset="100%"></stop>
        </linearGradient>
        <linearGradient x1="50%" y1="0%" x2="50%" y2="100%" id="linearGradient-4">
            <stop stop-color="#CFDDF3" offset="0%"></stop>
            <stop stop-color="#A1B8E3" offset="100%"></stop>
        </linearGradient>
        <linearGradient x1="50%" y1="0%" x2="50%" y2="100%" id="linearGradient-5">
            <stop stop-color="#CFDDF3" offset="0%"></stop>
            <stop stop-color="#A1B8E3" offset="100%"></stop>
        </linearGradient>
        <linearGradient x1="0%" y1="84.7707821%" x2="87.9785078%" y2="15.2292179%" id="linearGradient-6">
            <stop stop-color="#CBDAF1" offset="0%"></stop>
            <stop stop-color="#7089B9" offset="100%"></stop>
        </linearGradient>
        <linearGradient x1="100%" y1="50%" x2="18.7699945%" y2="50%" id="linearGradient-7">
            <stop stop-color="#23A295" offset="0%"></stop>
            <stop stop-color="#5DD1C5" offset="100%"></stop>
        </linearGradient>
    </defs>
    <g id="上传" stroke="none" stroke-width="1" fill="none" fill-rule="evenodd">
        <g id="画板" transform="translate(-1814.000000, -3182.000000)">
            <g id="编组-46" transform="translate(1814.000000, 3182.000000)">
                <rect id="矩形复制-28" x="0" y="0" width="1000" height="1000"></rect>
                <g id="编组-104" transform="translate(0.000000, 300.000000)">
                    <g id="编组-9" transform="translate(0.000000, 16.000000)">
                        <path d="M671.073478,217.726087 C669.936427,185.106734 584.986141,192.459562 552.216588,195.606383 C519.446571,198.753205 516.47128,154.067307 544.745138,147.425028 C573.01853,140.78275 624.290367,144.210594 650.855628,138.079222 C677.420889,131.94785 643.816786,99.0646843 680.01329,95.1011005 C716.209794,91.1377626 791.054872,94.8072923 813.367461,94.0020856 C848.414833,92.7373579 866.39622,134.949611 804.995013,136.865142 C788.062389,137.39326 784.665641,174.894009 841.820682,164.593018 C877.687734,158.128745 948.06035,157.979506 962.699821,174.483415 C971.09922,183.952645 968.188519,209.392751 953.748392,223.440718 C943.021454,233.876443 908.907607,235.911219 895.544124,238.323397 C864.192284,243.9832 870.39007,274.354121 881.080299,280.607688 C906.377937,295.405543 975.80727,267.477779 977.668279,308.112565 C978.490747,326.068551 915.318678,328.967541 889.416038,328.748229 C825.887101,328.210523 784.146139,333.873278 781.216851,312.191951 C778.27641,290.426046 820.693934,305.117196 818.602449,278.358764 C817.509542,264.375951 820.43883,234.663701 793.224888,236.223221 C830.48363,234.087886 672.609217,261.781833 671.073478,217.726087 Z" id="cloud" fill="url(#linearGradient-1)"></path>
                        <g id="plant" transform="translate(144.327460, 315.389769) scale(-1, 1) rotate(25.000000) translate(-144.327460, -315.389769) translate(71.327460, 130.889769)">
                            <path d="M112.168402,316.207884 C103.971842,323.462893 72.8003696,308.952874 60.4415797,286.430667 C48.0827898,263.908461 71.008366,255.891725 39.8255113,219.870405 C8.64265663,183.849085 -11.3660616,170.053679 7.55761236,110.678894 C26.4812863,51.3041076 0.338405087,18.3063689 34.8812421,2.81580041 C69.4240791,-12.674768 89.3171819,38.7366869 85.3549386,83.9582576 C81.3926953,129.179828 89.4968036,138.551873 123.284173,133.865851 C157.071542,129.179828 128.585654,195.569112 128.585654,210.060629 C128.585654,224.552147 149.073094,251.468365 144.822927,271.718959 C140.572761,291.969554 120.364963,308.952874 112.168402,316.207884 Z" id="leaves" fill="url(#linearGradient-2)"></path>
                            <path d="M92.434116,253.077235 C92.434116,241.95462 95.242685,207.299402 110.521005,186.194169" id="branch" stroke="url(#linearGradient-3)" stroke-width="4.8" stroke-linecap="round"></path>
                            <path d="M22.0592084,188.176417 C22.0592084,177.053803 53.2701085,169.245131 68.548428,148.139898" id="branch" stroke="url(#linearGradient-4)" stroke-width="4.8" stroke-linecap="round" transform="translate(45.303818, 168.158158) scale(-1, 1) translate(-45.303818, -168.158158) "></path>
                            <path d="M130.576562,368.304108 C130.576562,363.571843 122.431185,342.239565 114.647758,317.523819 C90.2741572,240.127086 50.98539,144.821319 50.98539,78.7783248" id="branch" stroke="url(#linearGradient-5)" stroke-width="4.8" stroke-linecap="round"></path>
                        </g>
                        <g id="plant" opacity="0.400000006" transform="translate(670.427569, 173.919512)">
                            <path d="M36.6892233,247.062281 C36.6892233,214.885738 63.6067134,115.309668 99.9401551,60.8240024" id="stem" stroke="#A1B8E3" stroke-width="4.8" stroke-linecap="round"></path>
                            <path d="M68.4321988,79.8781497 C74.6715828,71.1372173 77.7972938,61.3798065 77.8093317,50.6059173 C77.8273885,34.4450834 73.658379,21.3488196 68.4975883,21.3545933 C63.3367976,21.360367 59.1385122,34.4659919 59.1204554,50.6268257 C59.1084175,61.400715 62.2123319,71.1511563 68.4321988,79.8781497 Z" id="leaf" fill="#A1B8E3" transform="translate(68.464905, 50.616371) rotate(-30.000000) translate(-68.464905, -50.616371) "></path>
                            <path d="M121.70992,109.697499 C127.950811,100.980973 131.070772,91.246173 131.069802,80.4931001 C131.068348,64.3634908 126.875428,51.287482 121.704653,51.2870169 C116.533878,51.2865518 112.343316,64.3618067 112.34477,80.491416 C112.34574,91.2444888 115.467456,100.97985 121.70992,109.697499 Z" id="leaf" fill="#A1B8E3" transform="translate(121.707286, 80.492258) rotate(88.000000) translate(-121.707286, -80.492258) "></path>
                            <path d="M104.317219,152.170468 C110.559305,143.453119 113.68059,133.717922 113.681075,122.964874 C113.681803,106.835303 109.490641,93.7598906 104.319854,93.7601233 C99.1490675,93.760356 94.9567265,106.836146 94.9559989,122.965717 C94.9555138,133.718764 98.0759206,143.453681 104.317219,152.170468 Z" id="leaf" fill="#A1B8E3" transform="translate(104.318537, 122.965295) rotate(91.000000) translate(-104.318537, -122.965295) "></path>
                            <path d="M90.1471824,193.358219 C96.3892677,184.640871 99.5105529,174.905673 99.511038,164.152626 C99.5117657,148.023055 95.3206045,134.947642 90.1498175,134.947875 C84.9790305,134.948108 80.7866896,148.023897 80.7859619,164.153468 C80.7854768,174.906516 83.9058836,184.641433 90.1471824,193.358219 Z" id="leaf" fill="#A1B8E3" transform="translate(90.148500, 164.153047) rotate(91.000000) translate(-90.148500, -164.153047) "></path>
                            <path d="M119.012709,59.3915421 C125.232791,50.6659821 128.336483,40.9169056 128.323784,30.1443128 C128.304737,13.9854235 124.105144,0.881118158 118.943731,0.875027641 C113.782319,0.868937124 109.613609,13.9633677 109.632656,30.122257 C109.645355,40.8948499 112.772039,50.6512783 119.012709,59.3915421 Z" id="leaf" fill="#A1B8E3" transform="translate(118.978207, 30.133284) rotate(33.000000) translate(-118.978207, -30.133284) "></path>
                            <path d="M45.2591168,124.796376 C51.5028047,116.05851 54.631531,106.30514 54.6452959,95.5362661 C54.6659432,79.3829556 50.4970836,66.2934621 45.3338873,66.3000641 C40.170691,66.3066661 35.9683555,79.4068636 35.9477081,95.5601741 C35.9339433,106.329048 39.0377461,116.074448 45.2591168,124.796376 Z" id="leaf" fill="#A1B8E3" transform="translate(45.296517, 95.548219) rotate(-41.000000) translate(-45.296517, -95.548219) "></path>
                            <path d="M27.8700907,169.835648 C34.1155422,161.100077 37.2452011,151.349307 37.2590674,140.583338 C37.2798668,124.434383 33.1100013,111.348461 27.9454121,111.355111 C22.7808229,111.361762 18.5772349,124.458468 18.5564354,140.607422 C18.5425691,151.373391 21.6471209,161.116133 27.8700907,169.835648 Z" id="leaf" fill="#A1B8E3" transform="translate(27.907767, 140.595378) rotate(-47.000000) translate(-27.907767, -140.595378) "></path>
                        </g>
                        <path d="M639.068358,0 C657.202506,11.4264948 721.862437,79.7529792 694.350573,120.828163 C666.838709,161.903347 641.635126,191.929654 555.083184,144.203049 C468.531242,96.4764441 355.226548,194.027235 355.226548,288.406098" id="path" stroke="url(#linearGradient-6)" stroke-width="11.2" opacity="0.5" stroke-linecap="round" stroke-linejoin="round" stroke-dasharray="8.800000000000001,29.6"></path>
                    </g>
                    <g id="编组-103" transform="translate(283.000000, 0.000000)">
                        <polyline id="Fill-224" fill="#EAB8AA" points="18.7568556 450.730064 41.8686301 374.80315 63.773309 380.350508 36.1712649 455.385827 18.7568556 450.730064"></polyline>
                        <path d="M20.3109131,443.51706 L15.630713,457.431917 L52.0263718,473.501312 C53.9933672,465.235434 49.9251212,456.677043 42.4474166,453.355594 L20.3109131,443.51706" id="Fill-225" fill="#236CE4"></path>
                        <polyline id="Fill-226" fill="#BFB3B1" points="51.8939671 473.394569 15.5554819 457.259843 14.3802559 460.417941 50.3851889 476 51.8939671 473.394569"></polyline>
                        <polyline id="Fill-227" fill="#EAB8AA" points="174.081389 463.506562 148.804388 388.347688 169.52205 379.175853 190.694698 456.407405 174.081389 463.506562"></polyline>
                        <path d="M171.312614,456.951841 L175.490008,471.002625 L213.828154,460.960981 C210.692762,453.124365 202.557014,448.852125 194.668468,450.897413 L171.312614,456.951841" id="Fill-228" fill="#236CE4"></path>
                        <polyline id="Fill-229" fill="#BFB3B1" points="213.561075 461.007874 175.063985 470.919885 175.915496 474.125984 213.828154 463.991371 213.561075 461.007874"></polyline>
                        <path d="M86.4812813,196.771654 L20.0073126,419.462763 L57.1370864,430.401975 L112.806642,269.263548 C112.806642,269.263548 146.29938,396.09063 157.963627,439.769029 L192.570384,430.693813 C147.256495,240.349635 146.311933,235.805751 139.963595,199.178531 L86.4812813,196.771654" id="Fill-230" fill="#4CDBC4"></path>
                        <path d="M199.897956,223.840377 C188.23898,202.855527 178.741641,180.799926 166.928262,159.909277 C161.498961,150.313332 156.0413,140.736227 150.542674,131.181102 C145.806609,133.960033 141.039033,136.704423 136.299817,139.543014 C142.479074,150.275652 148.611066,161.033409 154.705244,171.816287 C166.1594,192.085209 177.53793,212.401232 188.847137,232.754935 C188.957425,233.304441 189.395424,235.700287 189.445841,239.62847 C189.461597,240.793423 189.272532,241.952096 188.910159,243.054248 C188.469008,244.388762 187.810434,246.137761 187.161312,246.976151 C186.360939,248.012362 187.205427,249.532139 188.336663,249.224415 C189.464748,248.916692 191.746126,246.115781 192.729261,241.945816 C193.712396,237.78213 196.523155,243.927177 197.588218,246.147182 C198.646979,248.367186 202.248657,255.083719 203.16562,255.294102 C204.504827,255.604965 205.056265,254.17625 203.943936,251.984506 C202.819002,249.764501 199.945222,242.978887 201.098515,242.463921 C202.236053,241.964656 207.501499,253.34414 207.501499,253.34414 C207.501499,253.34414 208.248303,255.959789 209.603266,255.416563 C212.042197,254.436872 205.591948,242.752804 204.949128,241.656932 C204.504827,240.893904 205.736897,240.294157 206.174896,241.138827 C206.6255,242.005476 211.172501,252.612512 213.668152,251.639102 C215.580854,250.891774 208.446821,241.980356 208.680001,239.251666 C208.910029,236.522976 213.431821,246.571086 215.231085,245.779798 C215.902264,245.484634 216.359169,245.167491 212.962311,239.776052 C210.548588,235.94207 202.957649,228.64149 199.897956,223.840377" id="Fill-231" fill="#EAB8AA"></path>
                        <g id="编组">
                            <path d="M136.299817,196.771654 C130.705345,195.510409 77.7211607,216.845518 42.3418985,216.986741 C16.5699464,217.089615 5.5293261,196.763142 2.50091408,193.335958 C-2.02476637,188.21435 -0.654294217,139.977348 23.4627085,99.3228346 C43.997309,64.7072482 86.9261744,37.2650504 93.2184997,28.5768661 C93.2184997,28.5768661 90.1153655,-6.47277941 110.931831,1.10441995 C122.457758,5.29933321 107.762673,15.697196 120.590218,19.5846287 C133.417764,23.4689239 158.139085,32.972583 151.992553,61.4710103 C149.87608,71.2843681 145.801754,85.1745598 141.301645,89.015748 C134.04973,95.2058147 125.64028,100.79622 119.106033,99.3228346" id="Fill-234" fill="#0D439B"></path>
                            <path d="M95.0420233,250.599789 C93.9856372,250.631164 92.1841216,250.141705 90.8416309,249.714998 C89.7349407,249.366729 88.6848426,248.839619 87.7447847,248.146219 C84.5882025,245.80874 82.8967271,244.051708 82.5163023,243.640688 C75.835289,229.465207 69.2297318,215.255213 62.6241747,201.042081 C66.6547907,193.703336 69.5126924,186.882288 74.2821499,177.717485 L55.0219675,172.157734 C50.6297908,181.564129 47.9228014,188.2283 46.3256462,193.229565 C45.247252,196.602438 45.5270686,200.232592 47.0550556,203.429762 C53.3682202,216.64515 61.26282,231.906226 67.2112798,244.531754 C69.324052,249.809124 72.4271862,263.024513 74.1280936,267.216289 C76.5206824,273.111758 77.0457314,272.926642 77.6745327,272.559548 C79.3691521,271.56808 73.8577091,262.03932 76.2062817,263.448083 C78.5548544,264.859984 81.6202605,275.832019 83.34632,274.724462 C85.5942845,273.281186 79.6426806,263.404157 79.1993757,262.531917 C78.7686469,261.687914 79.9759453,261.041577 80.337506,261.847929 C80.853123,263.005688 86.5657824,275.050768 88.7885948,273.651418 C90.0210453,272.876441 88.3327139,270.74604 88.3327139,270.74604 C88.3327139,270.74604 82.1704616,259.836756 83.2425678,259.212382 C84.3335379,258.581733 88.1629376,264.872534 89.3073559,267.078236 C90.4360541,269.258838 91.9168811,269.647895 92.4513621,268.386597 C92.8129229,267.520632 89.4645562,260.690171 88.2824098,258.531532 C87.1002635,256.372893 83.7581848,250.5088 87.7133447,252.152879 C91.6716486,253.796959 95.2746798,253.596155 96.1864416,252.865105 C97.0950594,252.130916 96.3562179,250.559 95.0420233,250.599789" id="Fill-232" fill="#EAB8AA"></path>
                        </g>
                        <path d="M93.2346229,28.4128702 C93.2346229,28.4128702 100.603156,12.8225972 115.560931,14.4926485 C115.560931,14.4926485 120.157988,15.111881 117.143731,17.8827901 C117.143731,17.8827901 108.529768,13.2854579 94.4296053,28.8569663 C94.4296053,28.8569663 92.7932046,30.2424208 93.2346229,28.4128702" id="Fill-235" fill="#DEA696"></path>
                        <path d="M156.30713,127.359777 C153.217634,123.369148 126.828451,110.592849 125.546906,102.397918 L127.903195,80.6379894 L112.894386,78.7086614 L110.315629,101.147311 C108.39801,106.718482 76.24344,120.176644 76.277907,120.380889 C78.530795,134.294674 87.0096751,202.116523 87.0096751,202.116523 L136.902213,209.265092 L156.30713,127.359777" id="Fill-236" fill="#EAB8AA"></path>
                        <path d="M112.294111,78.7086614 L127.546618,80.1775098 L125.930605,97.0770631 C125.930605,97.0770631 116.244014,102.92439 110.665448,95.7485505 L112.294111,78.7086614" id="Fill-237" fill="#DBA494"></path>
                        <path d="M144.317698,63.6219158 C143.193314,81.1802997 127.042794,96.7277984 117.429315,95.507464 C106.219836,94.0832178 93.979672,79.6493918 95.1071788,62.094145 C96.2315623,44.5357612 105.05485,30.7073967 121.505205,31.9340052 C137.961808,33.1574767 145.442081,46.066669 144.317698,63.6219158" id="Fill-238" fill="#EAB8AA"></path>
                        <path d="M151.273229,65.7722539 C150.957075,69.0375886 148.479455,71.4634422 145.737299,71.1918454 C142.991916,70.9202485 141.024015,68.0499637 141.333718,64.784629 C141.646646,61.5162079 144.124265,59.0903543 146.869648,59.3650375 C149.615031,59.6366343 151.582932,62.5069191 151.273229,65.7722539" id="Fill-239" fill="#EAB8AA"></path>
                        <path d="M143.802559,67.4645669 C143.802559,67.4645669 144.594302,61.8425197 146.355136,61.8425197 C146.671833,61.8425197 147.0202,62.023584 147.400236,62.4521029 C149.629782,64.9598438 148.781034,65.4638062 147.745436,65.4638062 C147.051869,65.4638062 146.272795,65.2404935 146.272795,65.2404935 C146.272795,65.2404935 146.218957,65.2163516 146.114447,65.2163516 C145.778748,65.2163516 144.933167,65.4517352 143.802559,67.4645669" id="Fill-240" fill="#C59487"></path>
                        <path d="M89.4438654,59.7589542 C89.1147807,63.0246528 91.0667048,65.9045175 93.8123038,66.191578 C96.5514502,66.4817251 99.0453962,64.0679479 99.3744809,60.8022492 C99.706792,57.5396372 97.7548678,54.6597725 95.0092688,54.3696254 C92.2668961,54.0825649 89.7761764,56.4963422 89.4438654,59.7589542" id="Fill-241" fill="#EAB8AA"></path>
                        <path d="M96.2602002,63.7165354 C95.4501788,61.1004681 94.5428291,60.9443782 94.338754,60.9443782 C94.3104974,60.9443782 94.2947993,60.9475 94.2947993,60.9475 C94.2947993,60.9475 94.1127015,60.963109 93.8521132,60.963109 C92.7375488,60.963109 90.1599224,60.6946343 93.7422265,57.8881373 C94.1158411,57.59781 94.4329425,57.4698163 94.7029497,57.4698163 C96.6086978,57.4698163 96.2602002,63.7165354 96.2602002,63.7165354" id="Fill-242" fill="#C59487"></path>
                        <path d="M126.296161,58.587545 C126.308809,58.6034501 126.988622,59.7008991 128.107942,60.8142532 C129.224101,61.9180642 130.782929,63.0823145 132.629491,63.0918575 C134.498187,63.0950385 136.452255,61.8353579 138.175503,58.5143817 L137.378698,58.0944882 C135.706041,61.2754999 134.055518,62.1820882 132.629491,62.1852692 C131.190817,62.1948122 129.777437,61.2118796 128.740327,60.1716888 C128.221772,59.6563649 127.798074,59.134679 127.507177,58.7465956 C127.213118,58.3553311 127.061346,58.1072122 127.058184,58.1072122 L126.296161,58.587545" id="Fill-243" fill="#191815"></path>
                        <path d="M113.004481,58.5236343 C113.004481,58.5236343 112.881199,58.7475366 112.634635,59.0989389 C111.901264,60.1718041 110.099448,62.2366811 107.991007,62.2086933 C106.527427,62.2086933 104.706644,61.288206 102.674069,58.0944882 L101.912249,58.5640611 C104.008045,61.8759495 106.09752,63.0918635 107.991007,63.0918635 C109.792823,63.085644 111.231115,62.0158885 112.223694,60.9989988 C113.216274,59.9758896 113.778946,58.9714389 113.79159,58.9527804 L113.004481,58.5236343" id="Fill-244" fill="#191815"></path>
                        <path d="M120.669104,63.7165354 L116.18696,65.1323585 C115.562195,65.3303337 115.481379,66.1462317 116.050195,66.4551931 L120.196645,68.7139108 L120.669104,63.7165354" id="Fill-245" fill="#DA9786"></path>
                        <path d="M108.789557,67.2056626 C108.768104,68.7566876 107.070287,69.9932331 104.998582,69.9627011 C102.926877,69.9352223 101.26277,68.6498256 101.287288,67.0957475 C101.30874,65.5447225 103.006558,64.3112302 105.078263,64.3417621 C107.149968,64.3692409 108.811009,65.6515844 108.789557,67.2056626" id="Fill-246" fill="#DA9786"></path>
                        <path d="M136.924841,67.8303345 C136.900333,69.3813595 135.203195,70.617905 133.132318,70.587373 C131.064505,70.5598943 129.401065,69.2744976 129.422508,67.7204194 C129.447016,66.1693944 131.141091,64.9359021 133.215031,64.9664341 C135.282844,64.9939128 136.946285,66.2762563 136.924841,67.8303345" id="Fill-247" fill="#DA9786"></path>
                        <path d="M115.667276,74.9606299 C115.667276,74.9606299 120.364786,83.3382709 124.420475,75.0433645 L115.667276,74.9606299" id="Fill-248" fill="#FFFFFE"></path>
                        <path d="M129.711258,26.2387013 C118.973575,19.6126267 98.0600479,27.4156183 92.7838,34.9630328 C85.1817343,45.839261 95.7248138,52.0362183 95.9351105,52.0519947 C104.613769,55.2198894 112.514017,50.0988803 116.26483,45.2902433 C122.884465,36.8057126 137.44829,42.2517149 141.895906,52.05515 C142.859504,54.1818044 143.791715,56.5955887 144.670566,59.343832 L146.924193,56.8669422 C146.924193,56.8669422 147.677494,37.3168669 129.711258,26.2387013" id="Fill-249" fill="#0D439B"></path>
                        <path d="M156.364135,126.985646 L136.131932,112.814738 C118.776122,133.399284 97.0066986,109.942257 97.0066986,109.942257 L76.073473,120.010068 L48.142596,175.864917 L72.8261352,189.354591 L82.0966086,165.906982 L81.2855601,217.055984 L146.380064,219.884514 L150.928852,177.547594 L161.896869,193.975675 L183.817185,182.501447 L156.364135,126.985646" id="Fill-250" fill="#5A94F3"></path>
                        <path d="M224.546301,402.061035 C225.016296,396.420217 218.433231,391.980307 217.496374,394.06857 C215.657127,398.182385 219.088091,407.077882 219.088091,407.077882 L223.822509,431.337474 L221.256335,469.76966 L229.077054,469.775931 L235.118059,436.849735 L242.03952,436.482878 L247.767194,469.173909 L255.321583,466.242189 L251.561622,435.680183 L279.203602,436.482878 L274.904713,469.173909 L284.552147,469.173909 L289.769093,437.583449 L297.78721,437.216592 L301.437505,470.377953 L308.869695,469.907623 L311.363803,413.22352 L303.978612,402.30247 C303.978612,402.30247 224.113906,407.234658 224.546301,402.061035" id="Fill-251" fill="#DAD4CF"></path>
                        <path d="M303.865367,386.976527 C303.865367,386.976527 313.714816,376.692011 321.744361,384.770463 C329.770768,392.85205 333.052871,395.058113 340.715297,393.221816 C340.715297,393.221816 342.905458,413.054449 312.255755,414.15748 L295.107861,402.769933 L303.865367,386.976527" id="Fill-252" fill="#DAD4CF"></path>
                        <path d="M318.402313,390.730722 C318.402313,391.577152 317.908382,392.264291 317.30191,392.264291 C316.695439,392.264291 316.204634,391.577152 316.204634,390.730722 C316.204634,389.884291 316.695439,389.200276 317.30191,389.200276 C317.908382,389.200276 318.402313,389.884291 318.402313,390.730722" id="Fill-253" fill="#3B4047"></path>
                        <polyline id="Fill-254" fill="#010604" points="335.122486 393.59655 342 392.918635 340.665986 397.91601 335.122486 393.59655"></polyline>
                        <path d="M192.571049,240.895548 C192.577336,241.049409 193.34124,265.557265 208.660188,299.576242 C223.972849,333.592078 253.868846,377.103336 312.013575,415.144678 C312.75233,415.628241 313.74572,415.42414 314.22984,414.686235 C314.710817,413.94833 314.50648,412.956084 313.767725,412.472521 C256.14484,374.764021 226.679521,331.792847 211.57434,298.266853 C204.026466,281.502286 200.071769,267.099015 198.006399,256.90337 C196.975285,251.803977 196.412574,247.759631 196.110785,244.996414 C195.95989,243.617945 195.875012,242.556618 195.824714,241.846974 C195.802708,241.492152 195.78699,241.22525 195.777559,241.049409 L195.768128,240.798207 C195.739836,239.915861 195.004224,239.221917 194.120862,239.250177 C193.2375,239.275297 192.545899,240.013202 192.571049,240.895548" id="Fill-255" fill="#3B4047"></path>
                        <path d="M305.148185,385.422572 C305.148185,385.422572 317.873551,402.791879 296.218596,424.152231 C287.750614,417.45687 287.40129,406.53991 294.400241,397.155811 L305.148185,385.422572" id="Fill-256" fill="#010604"></path>
                        <path d="M193.905159,242.959771 C194.035511,242.927997 198.028716,242.066938 202.238114,239.048465 C206.441153,236.058587 210.854026,230.72701 211.324563,222.218093 C211.375432,221.328437 210.695061,220.562698 209.804856,220.511861 C208.911472,220.461024 208.148439,221.140974 208.09757,222.033807 C207.649288,229.478315 203.98991,233.777257 200.349607,236.423982 C198.527866,237.733046 196.715663,238.590928 195.373997,239.108834 C194.699985,239.369376 194.146786,239.547307 193.768449,239.655337 L193.339243,239.772898 L193.221609,239.801494 C192.3473,239.992135 191.794102,240.853194 191.98168,241.723785 C192.172439,242.597554 193.03403,243.150411 193.905159,242.959771" id="Fill-257" fill="#3B4047"></path>
                    </g>
                    <g id="tree-4复制" transform="translate(769.000000, 216.000000)">
                        <path d="M69.858898,225.242264 C52.373671,220.660313 0.793412,198.505875 15.876441,172.577421 C30.95947,146.648968 46.042499,139.183128 30.95947,127.33348 C15.876441,115.483833 26.592507,89.1288262 41.503593,78.2817638 C56.414679,67.4344686 21.103675,35.1212265 37.279383,18.0237212 C53.454952,0.926448604 105.162396,27.3373353 106.359742,59.6657116 C107.557088,91.9940879 119.586843,89.7558496 125.700897,104.352479 C131.814951,118.948876 89.461929,140.858838 95.650904,156.71813 C101.83974,172.577421 137.940264,189.117521 116.795584,210.48265 C95.650904,231.84778 87.344125,229.824448 69.858898,225.242264 Z" id="leaves" fill="url(#linearGradient-7)"></path>
                        <path d="M79.2167197,76.9767096 C79.795036,79.9895888 80.2756223,83.0812882 80.653638,86.2714828 C83.4160582,109.584422 79.5733925,133.226406 67.3290717,156.723943 C65.3107824,160.597162 63.6368802,164.305072 62.2872907,167.877003 C69.3040996,169.030508 76.9541013,165.465092 83.2319985,156.221801 C83.717596,155.506829 84.6910595,155.320742 85.4062902,155.806164 C86.121521,156.291585 86.3076755,157.264696 85.8220781,157.979668 C78.7157778,168.442661 69.6183805,172.502559 61.2230711,170.865244 C58.3534754,179.45552 57.4060446,187.27542 58.0833739,194.759476 C58.1967319,196.012009 58.3394159,197.213438 58.5186472,198.391861 C59.0951852,198.8062 59.3332685,199.576178 59.0499016,200.260394 C59.006972,200.364052 58.9541847,200.460645 58.8930751,200.549538 C60.093405,206.687648 62.4401031,212.666326 67.0010087,222.640578 C67.2118016,223.101526 67.314172,223.325412 67.4226914,223.562896 C70.9040375,231.181465 72.5605125,235.20745 74.0150325,240.101027 C75.9223553,246.518012 76.7488197,252.697507 76.3844885,259.22697 C76.3267144,260.262384 75.4402057,261.054935 74.404416,260.997182 C73.3686263,260.939429 72.575788,260.053242 72.6335621,259.017827 C72.9725485,252.942589 72.2033157,247.191016 70.4138729,241.170626 C69.0239825,236.494488 67.4171365,232.589124 64.005561,225.12324 C63.897258,224.886231 63.7950983,224.662805 63.5842819,224.201805 C58.6521768,213.415777 56.2099805,207.094127 55.0110947,200.236686 C50.7353754,198.271058 46.3446272,195.62252 42.6830244,192.537214 C36.9361763,187.694859 33.3944759,182.165196 32.877091,176.008673 C32.804721,175.14752 33.4444091,174.390771 34.3058744,174.318427 C35.1673397,174.246083 35.9243628,174.88554 35.9967328,175.746693 C36.4341677,180.951866 39.5329123,185.789941 44.7007109,190.144384 C47.6100286,192.595806 51.0431713,194.771097 54.4833976,196.507983 C54.4321079,196.044276 54.3850521,195.574674 54.3418976,195.097845 C53.2429805,182.955513 56.1349345,170.077263 63.9972425,154.989021 C67.4975964,148.271646 70.2895896,141.547311 72.4183975,134.825628 C72.0689841,134.921563 71.684781,134.897342 71.3319069,134.729491 C64.4061315,131.435125 56.7963662,124.326102 53.0402584,115.795876 C52.6919785,115.004923 53.0510686,114.081494 53.8423088,113.73334 C54.6335489,113.385187 55.5573124,113.744147 55.9055924,114.5351 C59.3348791,122.323106 66.3879833,128.912098 72.6770621,131.903608 C72.879407,131.999857 73.0515891,132.133885 73.1891808,132.293231 C77.6433867,117.042583 78.7120384,101.811808 76.9229616,86.7132216 C75.0365667,70.7933372 70.5101523,57.3718781 63.9720175,43.8520005 C63.5205087,42.9183485 63.9116374,41.7955864 64.8456278,41.3442413 C65.7796182,40.8928961 66.9027872,41.2838831 67.3542959,42.2175351 C72.2340084,52.3080452 76.0265584,62.3618346 78.4785706,73.4087796 C80.4147335,71.3784503 82.7700363,67.8879125 84.6447725,64.0393038 C87.3897629,58.4041675 88.8765036,52.6350319 88.5992678,47.655337 C88.5512301,46.7924857 89.2120206,46.0540782 90.0751846,46.0060579 C90.9383487,45.9580376 91.6770238,46.6185886 91.7250615,47.48144 C92.0357006,53.061123 90.4194303,59.332884 87.4594387,65.4093921 C84.9926204,70.4734744 81.7423957,74.9860116 79.2350228,76.9624958 C79.2289461,76.9672859 79.2228449,76.9720238 79.2167197,76.9767096 Z" id="形状结合" fill="#3F3D56" fill-rule="nonzero"></path>
                    </g>
                    <g id="编组-78" transform="translate(205.000000, 238.000000)">
                        <rect id="矩形" fill="#FFFFFF" fill-rule="nonzero" opacity="0.4" x="59.295302" y="11.875" width="33.704698" height="43.75"></rect>
                        <rect id="矩形" fill="#FFFFFF" fill-rule="nonzero" opacity="0.4" x="59.295302" y="75.625" width="33.704698" height="43.75"></rect>
                        <rect id="矩形" fill="#FFFFFF" fill-rule="nonzero" opacity="0.4" x="59.295302" y="138.75" width="33.704698" height="43.75"></rect>
                        <path d="M43.6797383,245 C43.6797383,245 24.6822066,181.767324 47.2451445,135.226081 C56.7092573,115.696122 59.8588279,93.7654959 55.4848522,72.5671488 C53.3886181,62.5036988 50.3599665,52.6487827 46.436575,43.125" id="路径" stroke="#535461" stroke-width="1.6"></path>
                        <path d="M60.5436242,14.0797278 C60.5436242,21.8504651 46.5,44.375 46.5,44.375 C46.5,44.375 32.4563758,21.8277436 32.4563758,14.0797278 C32.4563758,6.30370884 38.7439205,-4.54747351e-13 46.5,-4.54747351e-13 C54.2560795,-4.54747351e-13 60.5436242,6.30370884 60.5436242,14.0797278 Z" id="路径" fill="#32B4A7" fill-rule="nonzero"></path>
                        <path d="M83.292519,56.644067 C79.149013,63.1479241 55.5503356,74.375 55.5503356,74.375 C55.5503356,74.375 55.9810226,47.8993218 60.1245286,41.4030097 C64.2666058,34.9024407 72.8107542,33.0445151 79.2084181,37.2532169 C85.6060821,41.4619187 87.4345963,50.143498 83.292519,56.644067 L83.292519,56.644067 Z" id="路径" fill="#32B4A7" fill-rule="nonzero"></path>
                        <path d="M82.7527191,130.593729 C75.8016442,134.117489 49.3087248,131.676789 49.3087248,131.676789 C49.3087248,131.676789 63.119912,108.79523 70.0634067,105.27147 C77.0129102,101.745709 85.4871952,104.556095 88.9912521,111.548644 C92.4953089,118.541193 89.7022226,127.067968 82.7527191,130.593729 L82.7527191,130.593729 Z" id="路径" fill="#32B4A7" fill-rule="nonzero"></path>
                        <path d="M69.3248835,185.824831 C63.11663,190.420602 36.8255034,192.5 36.8255034,192.5 C36.8255034,192.5 46.5061698,167.901323 52.7069072,163.305551 C58.9120111,158.780984 67.5960813,160.118933 72.1592563,166.302563 C76.7224313,172.486193 75.4570883,181.201476 69.3248835,185.824831 Z" id="路径" fill="#32B4A7" fill-rule="nonzero"></path>
                        <path d="M25.6589159,76.5786912 C31.2768656,81.9418339 57.4228188,87.5 57.4228188,87.5 C57.4228188,87.5 51.0197282,61.9444373 45.4094012,56.5812946 C41.7950787,53.0270358 36.5160768,51.662777 31.5933642,53.0107996 C26.6706515,54.3588222 22.8666946,58.2103343 21.6377684,63.0908555 C20.4088421,67.9713767 21.9452918,73.1249754 25.6589159,76.5786912 L25.6589159,76.5786912 Z" id="路径" fill="#32B4A7" fill-rule="nonzero"></path>
                        <path d="M11.070876,141.220931 C17.9805002,144.736922 44.3154362,142.306864 44.3154362,142.306864 C44.3154362,142.306864 30.5941434,119.525063 23.6845192,116.016665 C19.2032363,113.62474 13.7891529,113.860491 9.5292761,116.633039 C5.2693993,119.405588 2.82899262,124.281948 3.1487778,129.382391 C3.46856298,134.482835 6.49859928,139.010828 11.070876,141.220931 Z" id="路径" fill="#32B4A7" fill-rule="nonzero"></path>
                        <path d="M5.57444538,205.824831 C11.7826988,210.420602 38.0738255,212.5 38.0738255,212.5 C38.0738255,212.5 28.3931591,187.908857 22.1924217,183.305551 C15.9873178,178.780984 7.30324752,180.118933 2.74007256,186.302563 C-1.8231024,192.486193 -0.557759454,201.201476 5.57444538,205.824831 L5.57444538,205.824831 Z" id="路径" fill="#32B4A7" fill-rule="nonzero"></path>
                    </g>
                    <g id="编组-78复制-3" transform="translate(660.000000, 383.000000)">
                        <rect id="矩形" fill="#FFFFFF" fill-rule="nonzero" opacity="0.4" x="22.7368421" y="4.38666667" width="13.2631579" height="16.92"></rect>
                        <rect id="矩形" fill="#FFFFFF" fill-rule="nonzero" opacity="0.4" x="22.7368421" y="28.8266667" width="13.2631579" height="16.92"></rect>
                        <rect id="矩形" fill="#FFFFFF" fill-rule="nonzero" opacity="0.4" x="22.7368421" y="53.2666667" width="13.2631579" height="16.92"></rect>
                        <path d="M16.7881061,94 C16.7881061,94 9.43801742,69.6601832 18.1675512,51.7453109 C21.8291884,44.2277482 23.0477478,35.7861092 21.3554696,27.6263426 C20.5444429,23.7526725 19.3726666,19.9592722 17.854718,16.2933333" id="路径" stroke="#535461" stroke-width="1.6"></path>
                        <path d="M23.3684211,5.36854071 C23.3684211,8.33149002 18,16.92 18,16.92 C18,16.92 12.6315789,8.32282642 12.6315789,5.36854071 C12.6315789,2.40357755 15.0351029,0 18,0 C20.9648971,0 23.3684211,2.40357755 23.3684211,5.36854071 Z" id="路径" fill="#32B4A7" fill-rule="nonzero"></path>
                        <path d="M32.0006418,21.4273465 C30.4283606,23.9116134 21.4736842,28.2 21.4736842,28.2 C21.4736842,28.2 21.6371113,18.0871314 23.2093924,15.6057464 C24.7811314,13.1227354 28.0232658,12.4130669 30.4509023,14.0206573 C32.8785388,15.6282478 33.5723808,18.9443355 32.0006418,21.4273465 L32.0006418,21.4273465 Z" id="路径" fill="#32B4A7" fill-rule="nonzero"></path>
                        <path d="M31.7661037,50.0120786 C29.1018289,51.3946182 18.9473684,50.437015 18.9473684,50.437015 C18.9473684,50.437015 24.2410528,41.4594849 26.9024222,40.0769453 C29.5660946,38.6936206 32.8141999,39.7962698 34.1572685,42.539781 C35.5003371,45.2832923 34.4297761,48.6287539 31.7661037,50.0120786 L31.7661037,50.0120786 Z" id="路径" fill="#32B4A7" fill-rule="nonzero"></path>
                        <path d="M26.9258121,71.3219726 C24.5571757,73.1290419 14.5263158,73.9466667 14.5263158,73.9466667 C14.5263158,73.9466667 18.2197828,64.2744025 20.5855516,62.4673332 C22.9529864,60.6882614 26.2662218,61.2143466 28.007211,63.6457659 C29.7482003,66.0771853 29.2654337,69.5040577 26.9258121,71.3219726 Z" id="路径" fill="#32B4A7" fill-rule="nonzero"></path>
                        <path d="M9.91369665,29.1069212 C12.0699684,31.1234629 22.1052632,33.2133333 22.1052632,33.2133333 C22.1052632,33.2133333 19.64764,23.6044418 17.4942939,21.5879001 C16.1070509,20.2514988 14.0808735,19.7385375 12.1914464,20.245394 C10.3020193,20.7522505 8.8419911,22.200419 8.37030674,24.035495 C7.89862239,25.870571 8.48833985,27.8083241 9.91369665,29.1069212 L9.91369665,29.1069212 Z" id="路径" fill="#32B4A7" fill-rule="nonzero"></path>
                        <path d="M4.31033732,54.3996094 C6.95872441,55.7791009 17.0526316,54.8256726 17.0526316,54.8256726 C17.0526316,54.8256726 11.7934027,45.8872826 9.1450156,44.5107705 C7.42738645,43.572304 5.35222458,43.6648 3.71945809,44.7526035 C2.08669161,45.840407 1.1513091,47.753636 1.27387944,49.754784 C1.39644977,51.7559319 2.55783118,53.5324801 4.31033732,54.3996094 Z" id="路径" fill="#32B4A7" fill-rule="nonzero"></path>
                        <path d="M2.12681948,78.8419726 C4.49545592,80.6490419 14.5263158,81.4666667 14.5263158,81.4666667 C14.5263158,81.4666667 10.8328488,71.7973649 8.46707997,69.9873332 C6.09964518,68.2082614 2.78640978,68.7343466 1.04542054,71.1657659 C-0.695568695,73.5971853 -0.212802098,77.0240577 2.12681948,78.8419726 L2.12681948,78.8419726 Z" id="路径" fill="#32B4A7" fill-rule="nonzero"></path>
                    </g>
                    <g id="编组-78复制-4" transform="translate(733.000000, 383.000000)">
                        <rect id="矩形" fill="#FFFFFF" fill-rule="nonzero" opacity="0.4" x="22.7368421" y="4.38666667" width="13.2631579" height="16.92"></rect>
                        <rect id="矩形" fill="#FFFFFF" fill-rule="nonzero" opacity="0.4" x="22.7368421" y="28.8266667" width="13.2631579" height="16.92"></rect>
                        <rect id="矩形" fill="#FFFFFF" fill-rule="nonzero" opacity="0.4" x="22.7368421" y="53.2666667" width="13.2631579" height="16.92"></rect>
                        <path d="M16.7881061,94 C16.7881061,94 9.43801742,69.6601832 18.1675512,51.7453109 C21.8291884,44.2277482 23.0477478,35.7861092 21.3554696,27.6263426 C20.5444429,23.7526725 19.3726666,19.9592722 17.854718,16.2933333" id="路径" stroke="#535461" stroke-width="1.6"></path>
                        <path d="M23.3684211,5.36854071 C23.3684211,8.33149002 18,16.92 18,16.92 C18,16.92 12.6315789,8.32282642 12.6315789,5.36854071 C12.6315789,2.40357755 15.0351029,0 18,0 C20.9648971,0 23.3684211,2.40357755 23.3684211,5.36854071 Z" id="路径" fill="#32B4A7" fill-rule="nonzero"></path>
                        <path d="M32.0006418,21.4273465 C30.4283606,23.9116134 21.4736842,28.2 21.4736842,28.2 C21.4736842,28.2 21.6371113,18.0871314 23.2093924,15.6057464 C24.7811314,13.1227354 28.0232658,12.4130669 30.4509023,14.0206573 C32.8785388,15.6282478 33.5723808,18.9443355 32.0006418,21.4273465 L32.0006418,21.4273465 Z" id="路径" fill="#32B4A7" fill-rule="nonzero"></path>
                        <path d="M31.7661037,50.0120786 C29.1018289,51.3946182 18.9473684,50.437015 18.9473684,50.437015 C18.9473684,50.437015 24.2410528,41.4594849 26.9024222,40.0769453 C29.5660946,38.6936206 32.8141999,39.7962698 34.1572685,42.539781 C35.5003371,45.2832923 34.4297761,48.6287539 31.7661037,50.0120786 L31.7661037,50.0120786 Z" id="路径" fill="#32B4A7" fill-rule="nonzero"></path>
                        <path d="M26.9258121,71.3219726 C24.5571757,73.1290419 14.5263158,73.9466667 14.5263158,73.9466667 C14.5263158,73.9466667 18.2197828,64.2744025 20.5855516,62.4673332 C22.9529864,60.6882614 26.2662218,61.2143466 28.007211,63.6457659 C29.7482003,66.0771853 29.2654337,69.5040577 26.9258121,71.3219726 Z" id="路径" fill="#32B4A7" fill-rule="nonzero"></path>
                        <path d="M9.91369665,29.1069212 C12.0699684,31.1234629 22.1052632,33.2133333 22.1052632,33.2133333 C22.1052632,33.2133333 19.64764,23.6044418 17.4942939,21.5879001 C16.1070509,20.2514988 14.0808735,19.7385375 12.1914464,20.245394 C10.3020193,20.7522505 8.8419911,22.200419 8.37030674,24.035495 C7.89862239,25.870571 8.48833985,27.8083241 9.91369665,29.1069212 L9.91369665,29.1069212 Z" id="路径" fill="#32B4A7" fill-rule="nonzero"></path>
                        <path d="M4.31033732,54.3996094 C6.95872441,55.7791009 17.0526316,54.8256726 17.0526316,54.8256726 C17.0526316,54.8256726 11.7934027,45.8872826 9.1450156,44.5107705 C7.42738645,43.572304 5.35222458,43.6648 3.71945809,44.7526035 C2.08669161,45.840407 1.1513091,47.753636 1.27387944,49.754784 C1.39644977,51.7559319 2.55783118,53.5324801 4.31033732,54.3996094 Z" id="路径" fill="#32B4A7" fill-rule="nonzero"></path>
                        <path d="M2.12681948,78.8419726 C4.49545592,80.6490419 14.5263158,81.4666667 14.5263158,81.4666667 C14.5263158,81.4666667 10.8328488,71.7973649 8.46707997,69.9873332 C6.09964518,68.2082614 2.78640978,68.7343466 1.04542054,71.1657659 C-0.695568695,73.5971853 -0.212802098,77.0240577 2.12681948,78.8419726 L2.12681948,78.8419726 Z" id="路径" fill="#32B4A7" fill-rule="nonzero"></path>
                    </g>
                </g>
            </g>
        </g>
    </g>
</svg>